# KayKit Medieval Hexagon Pack 1.0 - rock_single_A
# CC0 1.0. Material reference stripped; Smash Drop supplies its own material.
o rock_single_A
v -0.000000 0.000000 0.000000
v 0.000000 0.069301 -0.107910
v 0.102629 0.069301 -0.033346
v 0.063428 0.069301 0.087302
v -0.063428 0.069301 0.087302
v -0.102629 0.069301 -0.033346
v 0.000000 0.000000 -0.156782
v 0.149109 0.000000 -0.048448
v 0.092154 0.000000 0.126840
v -0.092154 0.000000 0.126840
v -0.149109 0.000000 -0.048448
vn 0.5105 0.4956 -0.7027
vn 0.8261 0.4955 0.2684
vn -0.0000 0.4955 0.8686
vn 0.0000 1.0000 0.0000
vn -0.8261 0.4955 0.2684
vn -0.5105 0.4956 -0.7027
vn 0.0000 -1.0000 0.0000
s 1
f 7//1 2//1 3//1 8//1
f 8//2 3//2 4//2 9//2
f 9//3 4//3 5//3 10//3
f 3//4 2//4 6//4 5//4 4//4
f 10//5 5//5 6//5 11//5
f 11//6 6//6 2//6 7//6
f 1//7 7//7 8//7
f 1//7 8//7 9//7
f 1//7 9//7 10//7
f 1//7 10//7 11//7
f 1//7 11//7 7//7
