# KayKit Medieval Hexagon Pack 1.0 - tree_single_A
# CC0 1.0. Material reference stripped; Smash Drop supplies its own material.
o tree_single_A
v 0.286440 0.194805 -0.095032
v 0.178965 0.194877 0.243038
v -0.175770 0.194740 0.245293
v -0.287534 0.194584 -0.091384
v -0.001872 0.194624 -0.301716
v -0.000303 1.093841 -0.000263
v 0.225427 0.486696 -0.074914
v 0.140806 0.486752 0.191268
v -0.138497 0.486645 0.193043
v -0.226495 0.486521 -0.072041
v -0.001578 0.486553 -0.237648
v 0.129017 0.501221 -0.042917
v 0.080573 0.501253 0.109466
v -0.079321 0.501191 0.110483
v -0.129699 0.501121 -0.041272
v -0.000938 0.501139 -0.136079
v -0.000381 0.227578 -0.065207
v 0.061948 0.227618 -0.020524
v 0.038713 0.227633 0.052562
v -0.037976 0.227604 0.053049
v -0.062137 0.227570 -0.019736
v 0.000122 -0.102565 0.000106
v -0.051852 -0.102561 0.072607
v -0.084891 -0.102607 -0.026920
v 0.053014 -0.102520 0.071941
v 0.084785 -0.102542 -0.027999
v -0.000445 -0.102595 -0.089098
vn 0.8729 0.4013 0.2774
vn 0.0057 0.4012 0.9160
vn -0.8696 0.4006 0.2885
vn -0.5434 0.4004 -0.7379
vn -0.1342 -0.9899 0.0450
vn 0.0013 -0.9898 0.1421
vn 0.9084 0.3022 0.2887
vn 0.0059 0.3021 0.9533
vn -0.9049 0.3015 0.3003
vn -0.5654 0.3013 -0.7678
vn 0.5336 0.4008 -0.7447
vn 0.1355 -0.9898 0.0433
vn -0.0837 -0.9900 -0.1139
vn 0.0830 -0.9899 -0.1149
vn 0.1316 -0.9904 0.0420
vn 0.0013 -0.9904 0.1380
vn -0.1303 -0.9905 0.0437
vn -0.0812 -0.9905 -0.1105
vn 0.0806 -0.9905 -0.1116
vn 0.9513 0.0590 0.3024
vn -0.5919 0.0583 -0.8039
vn -0.9475 0.0584 0.3145
vn 0.5816 0.0586 -0.8114
vn 0.0063 0.0589 0.9982
vn 0.5553 0.3018 -0.7749
vn 0.0004 -1.0000 0.0003
s 1
f 12//1 13//1 2//1 1//1
f 13//2 14//2 3//2 2//2
f 14//3 15//3 4//3 3//3
f 15//4 16//4 5//4 4//4
f 7//5 12//5 16//6 11//6
f 6//7 8//7 7//7
f 6//8 9//8 8//8
f 6//9 10//9 9//9
f 6//10 11//10 10//10
f 16//11 12//11 1//11 5//11
f 10//12 11//6 16//6 15//12
f 7//5 8//13 13//13 12//5
f 8//13 9//14 14//14 13//13
f 9//14 10//12 15//12 14//14
f 4//15 5//16 17//16 21//15
f 1//17 2//18 19//18 18//17
f 2//18 3//19 20//19 19//18
f 3//19 4//15 21//15 20//19
f 18//20 19//20 25//20 26//20
f 5//16 1//17 18//17 17//16
f 21//21 17//21 27//21 24//21
f 20//22 21//22 24//22 23//22
f 17//23 18//23 26//23 27//23
f 19//24 20//24 23//24 25//24
f 11//25 6//25 7//25
f 22//26 23//26 24//26
f 22//26 25//26 23//26
f 22//26 26//26 25//26
f 22//26 27//26 26//26
f 22//26 24//26 27//26
